<svg width="27" height="23" viewBox="0 0 27 23" fill="none" xmlns="http://www.w3.org/2000/svg">
<path stroke="currentColor" d="M25.182 13H21.182C20.6515 13 20.1428 13.2107 19.7678 13.5858C19.3927 13.9609 19.182 14.4696 19.182 15V20C19.182 20.5304 19.3927 21.0391 19.7678 21.4142C20.1428 21.7893 20.6515 22 21.182 22H23.182C23.7124 22 24.2211 21.7893 24.5962 21.4142C24.9713 21.0391 25.182 20.5304 25.182 20V13ZM25.182 13C25.182 11.4165 24.8686 9.84863 24.2598 8.3868C23.651 6.92497 22.759 5.59808 21.635 4.48262C20.5111 3.36715 19.1775 2.48517 17.7111 1.88751C16.2447 1.28986 14.6745 0.98834 13.091 1.00034C11.5075 0.98834 9.93732 1.28986 8.47092 1.88751C7.00452 2.48517 5.6709 3.36715 4.54695 4.48262C3.423 5.59808 2.53093 6.92497 1.92217 8.3868C1.31341 9.84863 1 11.4165 1 13V20C1 20.5304 1.21071 21.0391 1.58579 21.4142C1.96086 21.7893 2.46957 22 3 22H5C5.53043 22 6.03914 21.7893 6.41421 21.4142C6.78929 21.0391 7 20.5304 7 20V15C7 14.4696 6.78929 13.9609 6.41421 13.5858C6.03914 13.2107 5.53043 13 5 13H1" stroke-width="2" stroke-linecap="round" stroke-linejoin="round"/>
</svg>
