<svg id="Livello_1" data-name="Livello 1" xmlns="http://www.w3.org/2000/svg" xmlns:xlink="http://www.w3.org/1999/xlink" width="200" height="66.45" viewBox="0 0 200 66.45"><defs><linearGradient id="linear-gradient" x1="23.52" y1="34.66" x2="34.69" y2="34.66" gradientTransform="matrix(1, 0, 0, -1, 0, 66)" gradientUnits="userSpaceOnUse"><stop offset="0.11" stop-color="#e72f72"/><stop offset="0.86" stop-color="#ed694b"/></linearGradient><linearGradient id="linear-gradient-2" x1="23.52" y1="34.12" x2="34.69" y2="34.12" xlink:href="#linear-gradient"/><linearGradient id="linear-gradient-3" x1="2.28" y1="35.86" x2="7.8" y2="42.03" gradientTransform="matrix(1, 0, 0, -1, 0, 66)" gradientUnits="userSpaceOnUse"><stop offset="0" stop-color="#1961ac"/><stop offset="1" stop-color="#007ec3"/></linearGradient><linearGradient id="linear-gradient-4" x1="2.86" y1="35.34" x2="8.38" y2="41.52" xlink:href="#linear-gradient-3"/><linearGradient id="linear-gradient-5" x1="23.21" y1="46.85" x2="35.04" y2="46.85" gradientTransform="matrix(1, 0, 0, -1, 0, 66)" gradientUnits="userSpaceOnUse"><stop offset="0.05" stop-color="#f9b233"/><stop offset="0.74" stop-color="#ed694b"/></linearGradient><linearGradient id="linear-gradient-6" x1="23.21" y1="46.52" x2="34.93" y2="46.52" xlink:href="#linear-gradient-5"/><linearGradient id="linear-gradient-7" x1="23.21" y1="46.25" x2="35.04" y2="46.25" xlink:href="#linear-gradient-5"/><linearGradient id="linear-gradient-8" x1="21.63" y1="56.55" x2="34.16" y2="56.55" gradientTransform="matrix(1, 0, 0, -1, 0, 66)" gradientUnits="userSpaceOnUse"><stop offset="0.16" stop-color="#f9b233"/><stop offset="0.85" stop-color="#ffd631"/></linearGradient><linearGradient id="linear-gradient-9" y1="60.44" x2="16.29" y2="60.44" gradientTransform="matrix(1, 0, 0, -1, 0, 66)" gradientUnits="userSpaceOnUse"><stop offset="0" stop-color="#169fdb"/><stop offset="1" stop-color="#73c1ec"/></linearGradient><linearGradient id="linear-gradient-10" y1="56.06" x2="12.78" y2="56.06" xlink:href="#linear-gradient-9"/><linearGradient id="linear-gradient-11" y1="56.06" x2="16.29" y2="56.06" xlink:href="#linear-gradient-9"/><linearGradient id="linear-gradient-12" x1="-1.01" y1="54.9" x2="10.7" y2="54.9" gradientTransform="matrix(1, 0, 0, -1, 0, 66)" gradientUnits="userSpaceOnUse"><stop offset="0" stop-color="#169fdb"/><stop offset="1" stop-color="#007ec3"/></linearGradient><linearGradient id="linear-gradient-13" x1="-1.01" y1="51.06" x2="10.7" y2="51.06" xlink:href="#linear-gradient-12"/><linearGradient id="linear-gradient-14" y1="55.35" x2="12.78" y2="55.35" xlink:href="#linear-gradient-9"/><linearGradient id="linear-gradient-15" x1="-1.01" y1="55.35" x2="10.7" y2="55.35" xlink:href="#linear-gradient-12"/><linearGradient id="linear-gradient-16" x1="0" y1="46.76" x2="12.78" y2="46.76" xlink:href="#linear-gradient-12"/><linearGradient id="linear-gradient-17" x1="-1.01" y1="46.76" x2="10.7" y2="46.76" xlink:href="#linear-gradient-12"/><linearGradient id="linear-gradient-18" x1="8.79" y1="36.83" x2="15.83" y2="31.48" gradientTransform="matrix(1, 0, 0, -1, 0, 66)" gradientUnits="userSpaceOnUse"><stop offset="0" stop-color="#1961ac"/><stop offset="1" stop-color="#164194"/></linearGradient><linearGradient id="linear-gradient-19" x1="11.67" y1="40.62" x2="18.71" y2="35.28" xlink:href="#linear-gradient-18"/><linearGradient id="linear-gradient-20" x1="4.8" y1="33.61" x2="10.32" y2="39.79" xlink:href="#linear-gradient-3"/><linearGradient id="linear-gradient-21" x1="8.46" y1="36.4" x2="15.5" y2="31.05" xlink:href="#linear-gradient-18"/><linearGradient id="linear-gradient-22" x1="8.38" y1="36.29" x2="15.42" y2="30.94" xlink:href="#linear-gradient-18"/><linearGradient id="linear-gradient-23" x1="5.01" y1="33.41" x2="10.53" y2="39.59" xlink:href="#linear-gradient-3"/><linearGradient id="linear-gradient-24" x1="8.38" y1="36.29" x2="15.42" y2="30.94" xlink:href="#linear-gradient-18"/><linearGradient id="linear-gradient-25" x1="11.59" y1="40.52" x2="18.63" y2="35.18" xlink:href="#linear-gradient-18"/><linearGradient id="linear-gradient-26" x1="6.64" y1="31.96" x2="12.16" y2="38.14" xlink:href="#linear-gradient-3"/><linearGradient id="linear-gradient-27" x1="11.59" y1="40.52" x2="18.63" y2="35.17" xlink:href="#linear-gradient-18"/><linearGradient id="linear-gradient-28" x1="6.63" y1="32.7" x2="14.33" y2="41.32" xlink:href="#linear-gradient-3"/><linearGradient id="linear-gradient-29" x1="1.46" y1="37.31" x2="9.17" y2="45.92" xlink:href="#linear-gradient-3"/><linearGradient id="linear-gradient-30" x1="6.32" y1="32.97" x2="14.03" y2="41.58" xlink:href="#linear-gradient-3"/><linearGradient id="linear-gradient-31" x1="0" y1="46.17" x2="12.78" y2="46.17" xlink:href="#linear-gradient-12"/><linearGradient id="linear-gradient-32" x1="-0.25" y1="38.84" x2="7.46" y2="47.46" xlink:href="#linear-gradient-3"/><linearGradient id="linear-gradient-33" x1="4.2" y1="34.13" x2="9.73" y2="40.31" xlink:href="#linear-gradient-3"/><linearGradient id="linear-gradient-34" x1="4.57" y1="34.54" x2="12.27" y2="43.16" xlink:href="#linear-gradient-3"/><linearGradient id="linear-gradient-35" x1="4.29" y1="34.78" x2="12" y2="43.39" xlink:href="#linear-gradient-3"/><linearGradient id="linear-gradient-36" x1="3.93" y1="34.38" x2="9.46" y2="40.56" xlink:href="#linear-gradient-3"/><linearGradient id="linear-gradient-37" x1="4.3" y1="34.78" x2="12" y2="43.4" xlink:href="#linear-gradient-3"/><linearGradient id="linear-gradient-38" x1="21.9" y1="57.04" x2="37.99" y2="57.04" xlink:href="#linear-gradient-8"/><linearGradient id="linear-gradient-39" x1="21.9" y1="52.8" x2="37.99" y2="52.8" xlink:href="#linear-gradient-8"/><linearGradient id="linear-gradient-40" x1="21.63" y1="52.84" x2="34.16" y2="52.84" xlink:href="#linear-gradient-8"/><linearGradient id="linear-gradient-41" x1="21.9" y1="52.84" x2="37.99" y2="52.84" xlink:href="#linear-gradient-8"/><linearGradient id="linear-gradient-42" x1="21.63" y1="54.98" x2="34.16" y2="54.98" xlink:href="#linear-gradient-8"/><linearGradient id="linear-gradient-43" x1="21.9" y1="54.98" x2="37.99" y2="54.98" xlink:href="#linear-gradient-8"/><linearGradient id="linear-gradient-44" x1="21.9" y1="52.91" x2="37.99" y2="52.91" xlink:href="#linear-gradient-8"/><linearGradient id="linear-gradient-45" x1="21.63" y1="52.91" x2="34.16" y2="52.91" xlink:href="#linear-gradient-8"/><linearGradient id="linear-gradient-47" x1="21.46" y1="52.21" x2="34.94" y2="52.21" xlink:href="#linear-gradient-5"/><linearGradient id="linear-gradient-48" x1="21.46" y1="50.26" x2="34.94" y2="50.26" xlink:href="#linear-gradient-5"/><linearGradient id="linear-gradient-49" x1="21.46" y1="52.56" x2="34.94" y2="52.56" xlink:href="#linear-gradient-5"/><linearGradient id="linear-gradient-50" x1="23.21" y1="46.68" x2="35.04" y2="46.68" xlink:href="#linear-gradient-5"/><linearGradient id="linear-gradient-51" x1="21.46" y1="46.68" x2="34.94" y2="46.68" xlink:href="#linear-gradient-5"/><linearGradient id="linear-gradient-52" x1="23.21" y1="45.93" x2="35.04" y2="45.93" xlink:href="#linear-gradient-5"/><linearGradient id="linear-gradient-53" x1="21.46" y1="45.93" x2="34.94" y2="45.93" xlink:href="#linear-gradient-5"/><linearGradient id="linear-gradient-54" x1="23.21" y1="45.02" x2="35.04" y2="45.02" xlink:href="#linear-gradient-5"/><linearGradient id="linear-gradient-55" x1="21.46" y1="45.02" x2="34.94" y2="45.02" xlink:href="#linear-gradient-5"/><linearGradient id="linear-gradient-56" x1="23.21" y1="46.68" x2="35.04" y2="46.68" xlink:href="#linear-gradient-5"/><linearGradient id="linear-gradient-58" x1="21.46" y1="46.68" x2="34.94" y2="46.68" xlink:href="#linear-gradient-5"/><linearGradient id="linear-gradient-59" x1="21.46" y1="46.11" x2="34.94" y2="46.11" xlink:href="#linear-gradient-5"/><linearGradient id="linear-gradient-60" x1="23.21" y1="46.11" x2="35.04" y2="46.11" xlink:href="#linear-gradient-5"/><linearGradient id="linear-gradient-61" x1="21.46" y1="46.11" x2="34.94" y2="46.11" xlink:href="#linear-gradient-5"/><linearGradient id="linear-gradient-62" x1="21.46" y1="45.15" x2="34.94" y2="45.15" xlink:href="#linear-gradient-5"/><linearGradient id="linear-gradient-63" x1="23.21" y1="45.15" x2="35.04" y2="45.15" xlink:href="#linear-gradient-5"/><linearGradient id="linear-gradient-64" x1="21.46" y1="45.15" x2="34.94" y2="45.15" xlink:href="#linear-gradient-5"/><linearGradient id="linear-gradient-65" x1="21.63" y1="54.19" x2="34.17" y2="54.19" xlink:href="#linear-gradient-8"/><linearGradient id="linear-gradient-66" x1="21.46" y1="54.19" x2="34.94" y2="54.19" xlink:href="#linear-gradient-5"/><linearGradient id="linear-gradient-67" x1="21.46" y1="53.71" x2="34.94" y2="53.71" xlink:href="#linear-gradient-5"/><linearGradient id="linear-gradient-68" x1="21.63" y1="53.71" x2="34.17" y2="53.71" xlink:href="#linear-gradient-8"/><linearGradient id="linear-gradient-69" x1="21.46" y1="53.71" x2="34.94" y2="53.71" xlink:href="#linear-gradient-5"/><linearGradient id="linear-gradient-70" x1="22.81" y1="25.25" x2="25.81" y2="35.65" gradientTransform="matrix(1, 0, 0, -1, 0, 66)" gradientUnits="userSpaceOnUse"><stop offset="0" stop-color="#c3006b"/><stop offset="0.89" stop-color="#e72f72"/></linearGradient><linearGradient id="linear-gradient-71" x1="23.52" y1="35.69" x2="34.69" y2="35.69" xlink:href="#linear-gradient"/><linearGradient id="linear-gradient-72" x1="25.67" y1="24.43" x2="28.67" y2="34.83" xlink:href="#linear-gradient-70"/><linearGradient id="linear-gradient-73" x1="24.23" y1="38" x2="35.56" y2="40.47" xlink:href="#linear-gradient"/><linearGradient id="linear-gradient-74" x1="24.05" y1="38.79" x2="35.38" y2="41.26" xlink:href="#linear-gradient"/><linearGradient id="linear-gradient-75" x1="23.52" y1="36.33" x2="34.69" y2="36.33" xlink:href="#linear-gradient"/><linearGradient id="linear-gradient-76" x1="24.79" y1="35.4" x2="36.12" y2="37.87" xlink:href="#linear-gradient"/><linearGradient id="linear-gradient-77" x1="23.52" y1="38.22" x2="34.69" y2="38.22" xlink:href="#linear-gradient"/><linearGradient id="linear-gradient-78" x1="24.15" y1="38.32" x2="35.48" y2="40.79" xlink:href="#linear-gradient"/><linearGradient id="linear-gradient-79" x1="24.19" y1="38.17" x2="35.52" y2="40.64" xlink:href="#linear-gradient"/><linearGradient id="linear-gradient-80" x1="23.52" y1="38.06" x2="34.69" y2="38.06" xlink:href="#linear-gradient"/><linearGradient id="linear-gradient-81" x1="24.19" y1="38.17" x2="35.52" y2="40.64" xlink:href="#linear-gradient"/><linearGradient id="linear-gradient-82" x1="23.21" y1="45.36" x2="35.04" y2="45.36" xlink:href="#linear-gradient-5"/><linearGradient id="linear-gradient-83" x1="22.91" y1="44.07" x2="34.24" y2="46.54" xlink:href="#linear-gradient"/><linearGradient id="linear-gradient-84" x1="22.99" y1="43.68" x2="34.32" y2="46.15" xlink:href="#linear-gradient"/><linearGradient id="linear-gradient-85" x1="23.21" y1="45.23" x2="35.04" y2="45.23" xlink:href="#linear-gradient-5"/><linearGradient id="linear-gradient-86" x1="22.99" y1="43.68" x2="34.32" y2="46.15" xlink:href="#linear-gradient"/></defs><path d="M92.73,55.6h-2L90,59.75h1.9c1.84,0,2.75-.89,2.74-2.48C94.68,56.2,94.05,55.6,92.73,55.6Z" transform="translate(0 0)" fill="none"/><path d="M69.1,16.25c-3.42,0-3.93,3.31-4,4.09h7.32C72.35,17.63,71.24,16.25,69.1,16.25Z" transform="translate(0 0)" fill="none"/><path d="M79.91,25.16c0,1.36.88,2.1,2.48,2.1,2.13,0,3.84-2.28,3.84-4.17v-.46a14.57,14.57,0,0,0-2.09-.12C81.21,22.51,79.91,23.33,79.91,25.16Z" transform="translate(0 0)" fill="none"/><path d="M171.94,16.25c-3.42,0-3.92,3.31-4,4.09h7.32C175.19,17.63,174.08,16.25,171.94,16.25Z" transform="translate(0 0)" fill="none"/><rect x="0.1" y="57.09" width="66.42" height="9.3" transform="translate(-0.11 0.06) rotate(-0.1)" fill="#0055b8"/><polygon points="82.67 58.8 77.5 58.8 78.37 53.57 75.96 53.58 73.84 66.44 76.25 66.43 77.15 61 82.31 60.99 81.41 66.42 83.82 66.42 85.94 53.56 83.53 53.56 82.67 58.8" fill="#0055b8"/><path d="M97.2,57.09c0-2.23-1.33-3.55-4-3.54H88.66L86.54,66.41H89l.78-4.64h1.34a6.71,6.71,0,0,0,1.1-.09l1.55,4.73h2.6l-1.76-5.2A4.24,4.24,0,0,0,97.2,57.09Zm-5.26,2.65H90l.69-4.15h2c1.32,0,2,.6,2,1.66C94.69,58.85,93.78,59.74,91.94,59.74Z" transform="translate(0 0)" fill="#0055b8"/><polygon points="54.67 11.49 54.67 28.98 54.67 29.1 54.78 29.1 57.36 29.1 57.48 29.1 57.48 28.98 57.48 11.49 63.54 11.49 63.65 11.49 63.65 11.37 63.65 9.04 63.65 8.93 63.54 8.93 48.58 8.93 48.46 8.93 48.46 9.04 48.46 11.37 48.46 11.49 48.58 11.49 54.67 11.49" fill="#0091d3"/><path d="M74.82,27.4v-.08l-1-1.66-.06-.11-.11.07a7.26,7.26,0,0,1-4.34,1.5c-3.33,0-4.13-2.45-4.2-4.55H75v-1.4C75,16.41,73,14,69,14s-6.82,3.05-6.82,7.78,2.5,7.65,6.85,7.65a8.6,8.6,0,0,0,5.64-2ZM69.1,16.25c2.14,0,3.25,1.38,3.32,4.09H65.1C65.17,19.56,65.68,16.25,69.1,16.25Z" transform="translate(0 0)" fill="#0091d3"/><path d="M86.69,29.1h2.22V19.24c0-3.43-1.9-5.24-5.49-5.24a8.37,8.37,0,0,0-5.65,2.19l-.08.07.07.08,1.13,1.5.07.09.1-.07a6.66,6.66,0,0,1,4.22-1.58,2.7,2.7,0,0,1,3,2.36,2.29,2.29,0,0,1,0,.64v1.25a15.43,15.43,0,0,0-2.15-.15c-6.18,0-6.85,3.28-6.85,4.69,0,2.71,1.68,4.32,4.5,4.32a5.18,5.18,0,0,0,4.76-2.52L86.68,29Zm-.46-6c0,1.89-1.71,4.17-3.84,4.17-1.6,0-2.48-.74-2.48-2.1,0-1.83,1.3-2.65,4.23-2.65a14.57,14.57,0,0,1,2.09.12Z" transform="translate(0 0)" fill="#0091d3"/><path d="M107.67,14A6.13,6.13,0,0,0,103,16.3,3.43,3.43,0,0,0,99.45,14,5.65,5.65,0,0,0,95,16.25l-.14-1.81v-.11H92.55V29.1h2.67V18.53a5.35,5.35,0,0,1,3.59-2.06c1.41,0,2,.85,2,2.93v9.7h2.7V18.48a5,5,0,0,1,3.48-2c1.43,0,2,.85,2,2.85V29.1h2.68V18.9C111.7,15.6,110.38,14,107.67,14Z" transform="translate(0 0)" fill="#0091d3"/><path d="M122.72,17.66c-3.29-1.11-4.93-1.66-4.93-3.8,0-1.79,1.44-2.9,3.76-2.9a7,7,0,0,1,5,2.24l.09.09.08-.1,1.42-1.57.07-.08-.07-.08a8.53,8.53,0,0,0-6.6-2.89c-4.07,0-6.6,2.13-6.6,5.57,0,3,1.53,4.42,6,5.79,3.54,1.07,4.46,1.86,4.46,3.82s-1.53,3.29-4,3.29a8.75,8.75,0,0,1-5.63-2.55l-.09-.08-.08.1-1.41,1.66-.07.08.07.07a9.68,9.68,0,0,0,7.21,3.11c4.19,0,6.9-2.33,6.9-5.93C128.31,20.51,126.9,19,122.72,17.66Z" transform="translate(0 0)" fill="#0091d3"/><path d="M139.41,14.33h-.09v.08l-3.69,11.37L132,14.41v-.08H129.1l.06.16L134.24,29l-.23.73c-.8,2.47-1.4,2.89-2.44,2.89a9.78,9.78,0,0,1-1.94-.22h-.12v.12l-.25,1.75v.1h.1a9.41,9.41,0,0,0,2.53.34c3,0,3.58-1.61,5-5.48L142,14.49l.06-.16h-2.65Z" transform="translate(0 0)" fill="#0091d3"/><path d="M149.88,20.45c-2.58-.67-3.43-1.1-3.43-2.35s1-1.9,2.68-1.9a6.27,6.27,0,0,1,4.05,1.63l.09.08.07-.1,1.14-1.47.06-.08-.07-.07A7.37,7.37,0,0,0,149,14c-3.27,0-5.38,1.71-5.38,4.35,0,2.29,1.3,3.47,4.8,4.35,2.64.66,3.29,1.13,3.29,2.41s-1.11,2-3,2a7.69,7.69,0,0,1-4.52-1.83l-.1-.08-.07.1-1,1.59-.06.08.07.08a8.61,8.61,0,0,0,6,2.38c3.49,0,5.66-1.76,5.66-4.6C154.62,22.55,153.33,21.36,149.88,20.45Z" transform="translate(0 0)" fill="#0091d3"/><path d="M163.25,27v-.14l-.13.05a3.86,3.86,0,0,1-1.26.24c-.71,0-1-.33-1-1.13V16.56h2.36V14.33h-2.36v-4h-2.3v.11l-.29,4-1.78.42h-.09V16.6h1.83v9.93c0,2,.91,2.94,2.69,2.94a7.06,7.06,0,0,0,2.57-.48h.08V28.9Z" transform="translate(0 0)" fill="#0091d3"/><path d="M171.91,14c-4.14,0-6.81,3.05-6.81,7.78s2.49,7.65,6.84,7.65a8.6,8.6,0,0,0,5.64-2l.08-.07v-.08l-1-1.66-.06-.11-.11.07a7.21,7.21,0,0,1-4.33,1.5c-3.34,0-4.13-2.45-4.2-4.55h9.89v-1.4C177.88,16.41,175.87,14,171.91,14Zm-4,6.34c.08-.78.58-4.09,4-4.09,2.14,0,3.25,1.38,3.32,4.09Z" transform="translate(0 0)" fill="#0091d3"/><path d="M196,14a6.11,6.11,0,0,0-4.63,2.3,3.44,3.44,0,0,0-3.6-2.3,5.66,5.66,0,0,0-4.42,2.25l-.14-1.81v-.11h-2.33V29.1h2.67V18.53a5.37,5.37,0,0,1,3.6-2.06c1.41,0,2,.85,2,2.93v9.7h2.7V18.48a5.08,5.08,0,0,1,3.49-2c1.43,0,2,.85,2,2.85V29.1H200V18.9C200,15.6,198.68,14,196,14Z" transform="translate(0 0)" fill="#0091d3"/><path d="M13.13,26.47,2,31.17l11.14-4.64S13.13,26.49,13.13,26.47Z" transform="translate(0 0)" fill="none"/><path d="M34.86,19.15v0Z" transform="translate(0 0)" fill="none"/><path d="M34.69,31.12q-.15.24-.3.45C34.59,31.29,34.69,31.12,34.69,31.12Z" transform="translate(0 0)" fill="url(#linear-gradient)"/><path d="M33.88,32.2s.28-.32.51-.64a7.79,7.79,0,0,1-.51.63Z" transform="translate(0 0)" fill="url(#linear-gradient-2)"/><path d="M1.47,30.33s.17.31.53.84c-.18-.27-.36-.55-.52-.84Z" transform="translate(0 0)" fill="url(#linear-gradient-3)"/><path d="M2.37,31.65,2,31.17C2.23,31.49,2.37,31.65,2.37,31.65Z" transform="translate(0 0)" fill="url(#linear-gradient-4)"/><path d="M34.87,19.18a.43.43,0,0,0,0-.05v0A0,0,0,0,1,34.87,19.18Z" transform="translate(0 0)" fill="url(#linear-gradient-5)"/><polygon points="34.94 19.48 34.94 19.47 34.94 19.48 34.94 19.48" fill="url(#linear-gradient-6)"/><path d="M35.08,20a2.7,2.7,0,0,1-.08-.41C35,19.72,35,19.88,35.08,20Z" transform="translate(0 0)" fill="url(#linear-gradient-7)"/><path d="M21.9,9.71c.06-.18.13-.35.2-.52A4.09,4.09,0,0,0,21.9,9.71Z" transform="translate(0 0)" fill="url(#linear-gradient-8)"/><path d="M12.78,11.08l.41.05h3.1V4.79H12.78V0H10.33C3.51,0,0,2.63,0,8.35v.46l12.78,1.72Z" transform="translate(0 0)" fill="url(#linear-gradient-9)"/><polygon points="12.78 10.53 0 8.81 0 9.51 12.78 11.08 12.78 10.53" fill="url(#linear-gradient-10)"/><polygon points="12.78 10.53 0 8.81 0 9.51 12.78 11.08 12.78 10.53" fill="url(#linear-gradient-11)"/><polygon points="12.78 11.13 13.19 11.13 12.78 11.08 12.78 11.13" fill="url(#linear-gradient-12)"/><polygon points="12.78 11.79 0 10.39 0 19.5 12.78 18.52 12.78 11.79" fill="url(#linear-gradient-13)"/><polygon points="12.78 11.18 12.78 11.13 12.78 11.08 0 9.51 0 10.39 12.78 11.79 12.78 11.18" fill="url(#linear-gradient-14)"/><polygon points="12.78 11.18 12.78 11.13 12.78 11.08 0 9.51 0 10.39 12.78 11.79 12.78 11.18" fill="url(#linear-gradient-15)"/><polygon points="12.78 18.52 0 19.5 0 19.96 12.78 19.06 12.78 18.52" fill="url(#linear-gradient-16)"/><polygon points="12.78 18.52 0 19.5 0 19.96 12.78 19.06 12.78 18.52" fill="url(#linear-gradient-17)"/><path d="M20.53,30.33a16.68,16.68,0,0,1-2,.16c-3,0-4.48-1.35-5.18-3.33l-11,4.49a13.83,13.83,0,0,0,8.76,4.76S18.27,34.76,20.53,30.33Z" transform="translate(0 0)" fill="url(#linear-gradient-18)"/><path d="M13.15,26.52l0-.05s0,0,0,.06Z" transform="translate(0 0)" fill="url(#linear-gradient-19)"/><path d="M13.26,26.92l.09.24h0l-.07-.23a2.48,2.48,0,0,0-.12-.41h0c0,.12.06.24.1.36a2.42,2.42,0,0,1-.11-.35L2,31.17l.37.48,11-4.5Z" transform="translate(0 0)" fill="url(#linear-gradient-20)"/><path d="M13.26,26.92l.09.24h0l-.07-.23a2.48,2.48,0,0,0-.12-.41h0c0,.12.06.24.1.36a2.42,2.42,0,0,1-.11-.35L2,31.17l.37.48,11-4.5Z" transform="translate(0 0)" fill="url(#linear-gradient-21)"/><path d="M13.26,26.92l.07.23-11,4.5,11-4.49Z" transform="translate(0 0)" fill="url(#linear-gradient-22)"/><path d="M13.26,26.92l.07.23-11,4.5,11-4.49Z" transform="translate(0 0)" fill="url(#linear-gradient-23)"/><path d="M13.26,26.92l.07.23-11,4.5,11-4.49Z" transform="translate(0 0)" fill="url(#linear-gradient-24)"/><path d="M13.25,26.88c0-.12-.07-.24-.1-.36h0A2.42,2.42,0,0,0,13.25,26.88Z" transform="translate(0 0)" fill="url(#linear-gradient-25)"/><path d="M13.25,26.88c0-.12-.07-.24-.1-.36h0A2.42,2.42,0,0,0,13.25,26.88Z" transform="translate(0 0)" fill="url(#linear-gradient-26)"/><path d="M13.25,26.88c0-.12-.07-.24-.1-.36h0A2.42,2.42,0,0,0,13.25,26.88Z" transform="translate(0 0)" fill="url(#linear-gradient-27)"/><path d="M13.16,26.47a4.5,4.5,0,0,1-.16-.78,2.23,2.23,0,0,0,0,.39l0,.05A1.91,1.91,0,0,0,13.16,26.47Z" transform="translate(0 0)" fill="url(#linear-gradient-28)"/><path d="M13,25.54h0A16.4,16.4,0,0,1,12.78,23V19.5L0,20.6v3.85a11.74,11.74,0,0,0,1.48,5.88L13,25.53Z" transform="translate(0 0)" fill="url(#linear-gradient-29)"/><path d="M13,25.53h0a.31.31,0,0,0,0,.1Z" transform="translate(0 0)" fill="url(#linear-gradient-30)"/><polygon points="12.78 19.06 0 19.96 0 20.6 12.78 19.5 12.78 19.06" fill="url(#linear-gradient-31)"/><polygon points="12.78 19.06 0 19.96 0 20.6 12.78 19.5 12.78 19.06" fill="url(#linear-gradient-32)"/><path d="M13.06,26.13l0-.05c0-.15,0-.29-.07-.39v-.15L1.48,30.33c.16.29.34.57.52.84l11.13-4.7C13.1,26.36,13.08,26.24,13.06,26.13Z" transform="translate(0 0)" fill="url(#linear-gradient-33)"/><path d="M13.06,26.13l0-.05c0-.15,0-.29-.07-.39v-.15L1.48,30.33c.16.29.34.57.52.84l11.13-4.7C13.1,26.36,13.08,26.24,13.06,26.13Z" transform="translate(0 0)" fill="url(#linear-gradient-34)"/><path d="M13,25.53,1.48,30.33,13,25.54Z" transform="translate(0 0)" fill="url(#linear-gradient-35)"/><path d="M13,25.53,1.48,30.33,13,25.54Z" transform="translate(0 0)" fill="url(#linear-gradient-36)"/><path d="M13,25.53,1.48,30.33,13,25.54Z" transform="translate(0 0)" fill="url(#linear-gradient-37)"/><path d="M29.79,4.79c-3.59,0-6.27,1.61-7.53,4.08L34.16,13l0,.13c.42-1.53,1.84-2,3.87-2V4.79Z" transform="translate(0 0)" fill="url(#linear-gradient-38)"/><path d="M34.09,13.22s0,0,0,0h0S34.09,13.2,34.09,13.22Z" transform="translate(0 0)" fill="url(#linear-gradient-39)"/><path d="M34.11,13.18s0,0,0,0,0,0,0,0Z" transform="translate(0 0)" fill="url(#linear-gradient-40)"/><path d="M34.11,13.18s0,0,0,0,0,0,0,0Z" transform="translate(0 0)" fill="url(#linear-gradient-41)"/><path d="M22.26,8.87a2.44,2.44,0,0,0-.14.28c-.07.17-.14.34-.2.52L34.1,13.18l.06-.18Z" transform="translate(0 0)" fill="url(#linear-gradient-42)"/><path d="M22.26,8.87a2.44,2.44,0,0,0-.14.28c-.07.17-.14.34-.2.52L34.1,13.18l.06-.18Z" transform="translate(0 0)" fill="url(#linear-gradient-43)"/><path d="M34.1,13.18h0s0,0,0,0l0-.13Z" transform="translate(0 0)" fill="url(#linear-gradient-44)"/><path d="M34.1,13.18h0s0,0,0,0l0-.13Z" transform="translate(0 0)" fill="url(#linear-gradient-45)"/><path d="M34.1,13.18h0s0,0,0,0l0-.13Z" transform="translate(0 0)" fill="url(#linear-gradient-44)"/><path d="M34.05,13.66c0,.09,0,.18,0,.27h0Z" transform="translate(0 0)" fill="url(#linear-gradient-47)"/><path d="M34.84,19c-.39-1.83-.72-3.33-.79-3.76a5.65,5.65,0,0,1,0-1.3h0L21.63,10.66a8.47,8.47,0,0,0,.05,3.58c.55,2.55,1.12,4.58,1.53,6.59v0S34.41,18.81,34.84,19Z" transform="translate(0 0)" fill="url(#linear-gradient-48)"/><path d="M34.09,13.22a3,3,0,0,0-.08.43A2.36,2.36,0,0,0,34.09,13.22Z" transform="translate(0 0)" fill="url(#linear-gradient-49)"/><path d="M34.87,19.18c0,.08,0,.18.07.29A.5.5,0,0,0,34.87,19.18Z" transform="translate(0 0)" fill="url(#linear-gradient-50)"/><path d="M34.87,19.18c0,.08,0,.18.07.29A.5.5,0,0,0,34.87,19.18Z" transform="translate(0 0)" fill="url(#linear-gradient-51)"/><path d="M34.94,19.48a.58.58,0,0,1-.08-.33h0V19h0V19c-.07-.25-11.64,1.75-11.64,1.75l0,.11a2,2,0,0,0,.05.24L34.94,19.5Z" transform="translate(0 0)" fill="url(#linear-gradient-52)"/><path d="M34.94,19.48a.58.58,0,0,1-.08-.33h0V19h0V19c-.07-.25-11.64,1.75-11.64,1.75l0,.11a2,2,0,0,0,.05.24L34.94,19.5Z" transform="translate(0 0)" fill="url(#linear-gradient-53)"/><path d="M23.21,20.83a1.67,1.67,0,0,0,.07.31,2,2,0,0,1-.05-.24S23.22,20.85,23.21,20.83Z" transform="translate(0 0)" fill="url(#linear-gradient-54)"/><path d="M23.21,20.83a1.67,1.67,0,0,0,.07.31,2,2,0,0,1-.05-.24S23.22,20.85,23.21,20.83Z" transform="translate(0 0)" fill="url(#linear-gradient-55)"/><path d="M34.94,19.48h0c0-.11,0-.21-.07-.29a0,0,0,0,0,0,0A.58.58,0,0,0,34.94,19.48Z" transform="translate(0 0)" fill="url(#linear-gradient-56)"/><path d="M34.94,19.48h0c0-.11,0-.21-.07-.29a0,0,0,0,0,0,0A.58.58,0,0,0,34.94,19.48Z" transform="translate(0 0)" fill="url(#linear-gradient-56)"/><path d="M34.94,19.48h0c0-.11,0-.21-.07-.29a0,0,0,0,0,0,0A.58.58,0,0,0,34.94,19.48Z" transform="translate(0 0)" fill="url(#linear-gradient-58)"/><path d="M23.21,20.79s11.57-2,11.64-1.75V19C34.41,18.81,23.21,20.79,23.21,20.79Z" transform="translate(0 0)" fill="url(#linear-gradient-59)"/><path d="M23.21,20.79s11.57-2,11.64-1.75V19C34.41,18.81,23.21,20.79,23.21,20.79Z" transform="translate(0 0)" fill="url(#linear-gradient-60)"/><path d="M23.21,20.79s11.57-2,11.64-1.75V19C34.41,18.81,23.21,20.79,23.21,20.79Z" transform="translate(0 0)" fill="url(#linear-gradient-61)"/><path d="M23.21,20.79v0s0,.05,0,.07Z" transform="translate(0 0)" fill="url(#linear-gradient-62)"/><path d="M23.21,20.79v0s0,.05,0,.07Z" transform="translate(0 0)" fill="url(#linear-gradient-63)"/><path d="M23.21,20.79v0s0,.05,0,.07Z" transform="translate(0 0)" fill="url(#linear-gradient-64)"/><path d="M34,13.66a.9.9,0,0,1,.08-.43L21.9,9.71a7.9,7.9,0,0,0-.27.95L34,13.92Z" transform="translate(0 0)" fill="url(#linear-gradient-65)"/><path d="M34,13.66a.9.9,0,0,1,.08-.43L21.9,9.71a7.9,7.9,0,0,0-.27.95L34,13.92Z" transform="translate(0 0)" fill="url(#linear-gradient-66)"/><polygon points="34 13.92 21.63 10.66 34 13.93 34 13.92" fill="url(#linear-gradient-67)"/><polygon points="34 13.92 21.63 10.66 34 13.93 34 13.92" fill="url(#linear-gradient-68)"/><polygon points="34 13.92 21.63 10.66 34 13.93 34 13.92" fill="url(#linear-gradient-69)"/><path d="M23.63,28.42c-.7,3.44-3.34,6.19-8.16,7.95l.11.46c.41,0,1.58.05,4.06.05,5.26,0,11.17-1.2,14.24-4.69L23.52,28.88A3.43,3.43,0,0,0,23.63,28.42Z" transform="translate(0 0)" fill="url(#linear-gradient-70)"/><path d="M23.52,28.88l10.36,3.31a7.79,7.79,0,0,0,.51-.63L23.63,28.42A3.43,3.43,0,0,1,23.52,28.88Z" transform="translate(0 0)" fill="url(#linear-gradient-71)"/><path d="M23.52,28.88l10.36,3.31a7.79,7.79,0,0,0,.51-.63L23.63,28.42A3.43,3.43,0,0,1,23.52,28.88Z" transform="translate(0 0)" fill="url(#linear-gradient-72)"/><path d="M23.59,28.48a3.6,3.6,0,0,0,.08-.37,3,3,0,0,0,0-.33C23.66,28,23.63,28.25,23.59,28.48Z" transform="translate(0 0)" fill="url(#linear-gradient-73)"/><path d="M25.19,21.54a5.68,5.68,0,0,1-1.86.11,3.1,3.1,0,0,0-.09-.5,27.23,27.23,0,0,1,.54,5.33,11.18,11.18,0,0,1-.09,1.29h0l11,3.34A8.65,8.65,0,0,0,36,26.38,40.52,40.52,0,0,0,35,20S28.47,21.13,25.19,21.54Z" transform="translate(0 0)" fill="url(#linear-gradient-74)"/><path d="M23.63,28.42l10.76,3.14q.15-.21.3-.45l-11-3.33s0,.14-.06.33S23.65,28.31,23.63,28.42Z" transform="translate(0 0)" fill="url(#linear-gradient-75)"/><path d="M23.63,28.42l10.76,3.14q.15-.21.3-.45l-11-3.33s0,.14-.06.33S23.65,28.31,23.63,28.42Z" transform="translate(0 0)" fill="url(#linear-gradient-76)"/><path d="M23.69,27.77h0Z" transform="translate(0 0)" fill="url(#linear-gradient-77)"/><path d="M23.69,27.77h0Z" transform="translate(0 0)" fill="url(#linear-gradient-78)"/><path d="M23.69,27.78a3,3,0,0,1,0,.33c0-.19.06-.31.06-.33h0Z" transform="translate(0 0)" fill="url(#linear-gradient-79)"/><path d="M23.69,27.78a3,3,0,0,1,0,.33c0-.19.06-.31.06-.33h0Z" transform="translate(0 0)" fill="url(#linear-gradient-80)"/><path d="M23.69,27.78a3,3,0,0,1,0,.33c0-.19.06-.31.06-.33h0Z" transform="translate(0 0)" fill="url(#linear-gradient-81)"/><path d="M34.92,19.59,23.28,21.14a2.75,2.75,0,0,0,.09.5,5.57,5.57,0,0,0,1.82-.1C28.49,21.12,35,20,35,20A2.12,2.12,0,0,0,34.92,19.59Z" transform="translate(0 0)" fill="url(#linear-gradient-82)"/><path d="M34.92,19.59,23.28,21.14a2.75,2.75,0,0,0,.09.5,5.57,5.57,0,0,0,1.82-.1C28.49,21.12,35,20,35,20A2.12,2.12,0,0,0,34.92,19.59Z" transform="translate(0 0)" fill="url(#linear-gradient-83)"/><path d="M25.19,21.54C28.47,21.13,35,20,35,20S28.49,21.12,25.19,21.54Z" transform="translate(0 0)" fill="url(#linear-gradient-84)"/><path d="M25.19,21.54C28.47,21.13,35,20,35,20S28.49,21.12,25.19,21.54Z" transform="translate(0 0)" fill="url(#linear-gradient-85)"/><path d="M25.19,21.54C28.47,21.13,35,20,35,20S28.49,21.12,25.19,21.54Z" transform="translate(0 0)" fill="url(#linear-gradient-86)"/></svg>