<svg width="150" height="64" viewBox="0 0 150 64" fill="none" xmlns="http://www.w3.org/2000/svg">
<path fill-rule="evenodd" clip-rule="evenodd" d="M42.1402 4.13222L35.666 36.269H35.6501L28.8264 1.87111L18.1804 -0.0149841V32.6486L-0.00537109 39.2655L6.98664 40.6851L25.0939 34.07V8.50993L29.8294 35.0597L13.9384 42.058L21.4492 43.527L41.1185 37.3986L46.1858 12.1623V38.4423L28.53 44.8314L35.8118 46.3452L53.3685 39.925V6.05216L42.1402 4.13222ZM74.7109 21.612V44.3402C64.0752 47.8544 60.7176 45.0811 60.7176 45.0811C59.6566 43.9011 64.3117 42.1907 64.3117 42.1907V19.7689L56.829 18.4471V40.6384C41.2755 46.0735 45.252 48.5048 45.252 48.5048C49.9361 51.5571 65.2839 47.7849 65.2839 47.7849L57.7721 50.5491L64.9904 52.0474L82.2526 45.8961V22.9081L74.7109 21.612ZM110.738 37.5367C108.522 36.1576 106.186 34.9721 103.757 33.9941C98.5137 31.69 92.5041 29.675 92.8275 25.3851C93.1509 21.0952 96.8348 20.3744 100.105 21.0074C103.374 21.6403 107.822 23.6005 108.175 29.5314L116.214 30.9711C116.296 27.5318 115.343 24.1448 113.473 21.2316C111.603 18.3183 108.899 16.0074 105.697 14.5862C105.697 14.5862 96.8601 10.6412 90.4392 14.213C84.0183 17.7849 85.2821 27.6032 85.6944 29.0713C86.1066 30.5393 87.4629 35.9534 95.8879 39.5838C95.8879 39.5838 101.543 42.059 102.457 42.4916C103.372 42.9243 111.33 45.6144 108.973 51.4309C104.289 53.0426 96.5666 52.3684 95.2691 52.1388C93.9717 51.9093 90.556 51.1885 91.0851 49.8915C91.2877 49.4831 91.5722 49.1188 91.9217 48.8202C92.2711 48.5217 92.6783 48.2949 93.1192 48.1535C92.6705 47.0734 92.4175 45.9251 92.3714 44.76L84.596 43.2243C84.5243 44.2974 84.5902 45.375 84.7923 46.4321C78.263 48.4965 77.017 51.2068 76.9086 51.5955C76.2346 54.0149 78.3855 55.7555 82.5433 56.7782C93.2584 59.4152 117.129 53.1194 117.129 53.1194C117.129 53.1194 119.722 43.1849 110.737 37.5413L110.738 37.5367ZM141.629 47.8682L127.802 45.221C127.96 43.9533 129.217 37.5376 135.502 39.4237C141.787 41.3098 141.629 47.8691 141.629 47.8691V47.8682ZM142.297 34.8164C142.297 34.8164 132.831 28.2508 125.328 33.3959C125.328 33.3959 117.598 38.1304 120.223 53.7469C102.705 61.4998 117.044 63.6136 117.044 63.6136C128.822 65.3955 145.498 60.7287 148.952 59.7033L140.773 58.0038C136.91 59.1856 129.393 59.9137 126.903 58.6597C124.311 57.3553 128.317 55.4345 128.317 55.4345C127.816 54.0549 127.571 52.5992 127.591 51.1354L149.861 55.3686C149.861 55.3686 151.648 41.6483 142.301 34.8173" fill="white"/>
</svg>
