<svg width="53" height="36" viewBox="0 0 53 36" fill="none" xmlns="http://www.w3.org/2000/svg">
<path fill="currentColor" d="M45.2344 35.0273H28.3008L31.0547 21.6094C32.6953 13.8359 35.2734 8.34766 38.7891 5.14453C42.3438 1.90234 46.9336 0.222656 52.5586 0.105469L50.918 7.89844C48.1055 8.5625 45.9375 9.69531 44.4141 11.2969C42.8906 12.8984 41.7188 15.3984 40.8984 18.7969H48.6328L45.2344 35.0273ZM16.9922 35.0273H0L2.8125 21.6094C4.45312 13.8359 7.03125 8.34766 10.5469 5.14453C14.0625 1.90234 18.6328 0.222656 24.2578 0.105469L22.6172 7.89844C19.8047 8.5625 17.6367 9.69531 16.1133 11.2969C14.5898 12.8984 13.4375 15.3984 12.6562 18.7969H20.3906L16.9922 35.0273Z"/>
</svg>
